<svg xmlns:xlink="http://www.w3.org/1999/xlink" width="4.648ex" height="1.843ex" style="font-size: 15px; vertical-align: -0.338ex;" viewBox="0 -647.8 2001 793.3" role="img" focusable="false" xmlns="http://www.w3.org/2000/svg">
<defs>
<path stroke-width="1" id="E1-MJMAIN-2190" d="M944 261T944 250T929 230H165Q167 228 182 216T211 189T244 152T277 96T303 25Q308 7 308 0Q308 -11 288 -11Q281 -11 278 -11T272 -7T267 2T263 21Q245 94 195 151T73 236Q58 242 55 247Q55 254 59 257T73 264Q121 283 158 314T215 375T247 434T264 480L267 497Q269 503 270 505T275 509T288 511Q308 511 308 500Q308 493 303 475Q293 438 278 406T246 352T215 315T185 287T165 270H929Q944 261 944 250Z"></path>
<path stroke-width="1" id="E1-MJMAIN-21C0" d="M691 500Q691 511 711 511Q720 511 723 510T730 504T735 490T746 464T768 425Q796 378 835 339T897 285T933 263Q941 258 942 256T944 245T937 230H70Q56 237 56 250T70 270H852Q802 308 762 364T707 455T691 500Z"></path>
</defs>
<g stroke="currentColor" fill="currentColor" stroke-width="0" transform="matrix(1 0 0 -1 0 0)">
 <use xlink:href="#E1-MJMAIN-2190"></use>
 <use xlink:href="#E1-MJMAIN-21C0" x="1000" y="0"></use>
</g>
</svg>